<svg width="54" height="38" viewBox="0 0 54 38" fill="none" xmlns="http://www.w3.org/2000/svg">
<path d="M54 18.9993C53.962 18.5737 53.7844 18.0055 53.5 17.6868L38.5 0.686758C37.8457 -0.201563 36.4966 -0.198621 35.6663 0.527899C34.836 1.25442 34.7727 2.54531 35.5 3.31176L47.5938 16.9993L2 16.9993C0.895499 16.9993 -8.78831e-07 17.8947 -8.30547e-07 18.9993C-7.82264e-07 20.1039 0.895499 20.9993 2 20.9993L47.5938 20.9993L35.5 34.6868C34.7064 35.4532 34.9296 36.7676 35.7599 37.4941C36.5902 38.2206 37.8457 38.1688 38.5 37.3118L53.5 20.3118C53.9009 19.8775 53.9774 19.4062 54 18.9993Z" fill="#FFBA08"/>
</svg>
