<svg width="22" height="16" viewBox="0 0 22 16" fill="none" xmlns="http://www.w3.org/2000/svg">
<path d="M22 8.00037C21.9845 8.17957 21.9122 8.41882 21.7963 8.55301L15.6852 15.711C15.4186 16.085 14.869 16.0838 14.5307 15.7779C14.1925 15.472 14.1667 14.9284 14.463 14.6057L19.3901 8.84249L0.814815 8.84249C0.364834 8.84249 3.70038e-07 8.46547 3.49707e-07 8.00037C3.29377e-07 7.53527 0.364834 7.15826 0.814815 7.15826L19.3901 7.15826L14.463 1.39505C14.1396 1.07235 14.2306 0.518913 14.5688 0.213015C14.9071 -0.0928823 15.4186 -0.0710714 15.6852 0.289774L21.7963 7.44774C21.9596 7.6306 21.9908 7.82904 22 8.00037Z" fill="#FFBA08"/>
</svg>
