<svg width="38" height="54" viewBox="0 0 38 54" fill="none" xmlns="http://www.w3.org/2000/svg">
<path d="M19.0007 54C19.4263 53.962 19.9945 53.7844 20.3132 53.5L37.3132 38.5C38.2016 37.8457 38.1986 36.4966 37.4721 35.6663C36.7456 34.836 35.4547 34.7727 34.6882 35.5L21.0007 47.5938L21.0007 2C21.0007 0.8955 20.1053 0 19.0007 0C17.8961 0 17.0007 0.8955 17.0007 2L17.0007 47.5938L3.31321 35.5C2.54681 34.7064 1.23241 34.9296 0.505908 35.7599C-0.220592 36.5902 -0.168791 37.8457 0.688209 38.5L17.6882 53.5C18.1225 53.9009 18.5938 53.9774 19.0007 54Z" fill="#FFBA08"/>
</svg>
