<svg width="236" height="67" viewBox="0 0 236 67" fill="none" xmlns="http://www.w3.org/2000/svg">
<path d="M199 1H219.5V6.5M222 18H227.5V23.5M227.5 52.5V66H214" stroke="#c59008"/>
<path d="M222 10H234.5V59H199" stroke="#c59008" stroke-width="3"/>
<path d="M74 1H199" stroke="#c59008"/>
<path d="M74 59H199" stroke="#c59008" stroke-width="3"/>
<path d="M74.5 1H1V49H7.5M9 57.5V66H29.5" stroke="#c59008"/>
<path d="M15.5 59H74.5" stroke="#c59008" stroke-width="3"/>
<path d="M55 31H15V32H55V31Z" fill="#c59008"/>
<path d="M51.5541 37C51.3827 37 51.214 36.8839 51.1056 36.6669C50.9264 36.3063 50.9812 35.8014 51.2289 35.5409L54.7529 31.8169C54.843 31.7218 54.8945 31.6137 54.8945 31.5201C54.895 31.4266 54.8436 31.3177 54.7534 31.2217L51.2262 27.4574C50.9801 27.1945 50.9264 26.6895 51.1067 26.3306C51.2865 25.9709 51.6315 25.8926 51.8793 26.1556L55.4066 29.9199C55.7849 30.3232 56.0011 30.9079 56 31.5233C55.9994 32.1388 55.781 32.7219 55.4016 33.1228L51.8777 36.8468C51.7803 36.95 51.6669 37 51.5541 37Z" fill="#c59008"/>
</svg>
