<svg width="43" height="33" viewBox="0 0 43 33" fill="none" xmlns="http://www.w3.org/2000/svg">
<path d="M41.7488 11.1261H33.3352C32.7612 4.89276 27.6744 0 21.5003 0C15.3262 0 10.2394 4.89337 9.66542 11.1261H1.25181C0.876882 11.1261 0.522611 11.2881 0.284761 11.5673C0.0469118 11.8466 -0.0488538 12.2141 0.0237529 12.5689L4.00147 32.0251C4.11727 32.592 4.63177 33 5.22953 33H37.7705C38.3682 33 38.8827 32.592 38.9985 32.0251L42.9762 12.5689C43.0489 12.2141 42.9531 11.8466 42.7152 11.5673C42.4786 11.2881 42.1237 11.1261 41.7488 11.1261ZM21.5003 2.41767C26.2992 2.41767 30.2619 6.22913 30.8165 11.1261H12.1841C12.7387 6.22973 16.7014 2.41767 21.5003 2.41767ZM36.7421 30.5829H6.25854L2.7753 13.5444H40.226L36.7421 30.5829Z" fill="#0D1821"/>
</svg>
